<mxfile host="app.diagrams.net" modified="2021-08-31T15:02:47.629Z" agent="5.0 (Macintosh; Intel Mac OS X 10_15_7) AppleWebKit/605.1.15 (KHTML, like Gecko) Version/14.1.2 Safari/605.1.15" etag="GM0WFt02ZvTYKORQZS_I" version="14.9.8" type="github">
  <diagram id="64BJW6t8a5M6uXcy-y3C" name="Page-1">
    <mxGraphModel dx="1298" dy="865" grid="1" gridSize="10" guides="1" tooltips="1" connect="1" arrows="1" fold="1" page="1" pageScale="1" pageWidth="850" pageHeight="1100" math="0" shadow="0">
      <root>
        <mxCell id="0" />
        <mxCell id="1" parent="0" />
        <mxCell id="xc0sHy3A4MHcJjiOUEkv-39" value="Azure AKS" style="rounded=1;whiteSpace=wrap;html=1;fontSize=12;align=center;verticalAlign=bottom;" vertex="1" parent="1">
          <mxGeometry x="495" y="60" width="780" height="720" as="geometry" />
        </mxCell>
        <mxCell id="xc0sHy3A4MHcJjiOUEkv-48" value="service mesh" style="rounded=1;whiteSpace=wrap;html=1;fontSize=14;align=center;verticalAlign=bottom;fillColor=#f5f5f5;strokeColor=#666666;fontColor=#333333;" vertex="1" parent="1">
          <mxGeometry x="510" y="100" width="340" height="410" as="geometry" />
        </mxCell>
        <mxCell id="xc0sHy3A4MHcJjiOUEkv-1" value="Actor" style="shape=umlActor;verticalLabelPosition=bottom;verticalAlign=top;html=1;outlineConnect=0;" vertex="1" parent="1">
          <mxGeometry x="70" y="260" width="30" height="60" as="geometry" />
        </mxCell>
        <mxCell id="xc0sHy3A4MHcJjiOUEkv-37" value="" style="group;fillColor=#f8cecc;strokeColor=#b85450;" vertex="1" connectable="0" parent="1">
          <mxGeometry x="153" y="160" width="302" height="260" as="geometry" />
        </mxCell>
        <mxCell id="xc0sHy3A4MHcJjiOUEkv-2" value="&lt;font style=&quot;font-size: 14px&quot;&gt;mia4kids.com&lt;/font&gt;" style="whiteSpace=wrap;html=1;verticalAlign=bottom;fillColor=#f8cecc;strokeColor=#b85450;" vertex="1" parent="xc0sHy3A4MHcJjiOUEkv-37">
          <mxGeometry width="302" height="260" as="geometry" />
        </mxCell>
        <mxCell id="xc0sHy3A4MHcJjiOUEkv-36" value="Envanter Formu" style="rounded=1;whiteSpace=wrap;html=1;fontSize=12;align=center;verticalAlign=bottom;fillColor=#fff2cc;strokeColor=#d6b656;" vertex="1" parent="xc0sHy3A4MHcJjiOUEkv-37">
          <mxGeometry x="27" y="30" width="250" height="200" as="geometry" />
        </mxCell>
        <mxCell id="xc0sHy3A4MHcJjiOUEkv-35" value="" style="shape=image;html=1;verticalAlign=top;verticalLabelPosition=bottom;labelBackgroundColor=#ffffff;imageAspect=0;aspect=fixed;image=https://cdn2.iconfinder.com/data/icons/thin-line-icons-for-seo-and-development-1/64/SEO_planchette_questionnaire-128.png;fontSize=12;" vertex="1" parent="xc0sHy3A4MHcJjiOUEkv-37">
          <mxGeometry x="87" y="60" width="128" height="128" as="geometry" />
        </mxCell>
        <mxCell id="xc0sHy3A4MHcJjiOUEkv-3" value="" style="edgeStyle=orthogonalEdgeStyle;rounded=0;orthogonalLoop=1;jettySize=auto;html=1;entryX=0;entryY=0.5;entryDx=0;entryDy=0;" edge="1" parent="1" source="xc0sHy3A4MHcJjiOUEkv-1" target="xc0sHy3A4MHcJjiOUEkv-36">
          <mxGeometry relative="1" as="geometry" />
        </mxCell>
        <mxCell id="xc0sHy3A4MHcJjiOUEkv-38" value="Ingress Controller" style="rounded=1;whiteSpace=wrap;html=1;fontSize=12;align=center;verticalAlign=middle;" vertex="1" parent="1">
          <mxGeometry x="620" y="260" width="120" height="60" as="geometry" />
        </mxCell>
        <mxCell id="xc0sHy3A4MHcJjiOUEkv-40" style="edgeStyle=orthogonalEdgeStyle;rounded=0;orthogonalLoop=1;jettySize=auto;html=1;exitX=1;exitY=0.5;exitDx=0;exitDy=0;fontSize=12;" edge="1" parent="1" source="xc0sHy3A4MHcJjiOUEkv-36" target="xc0sHy3A4MHcJjiOUEkv-38">
          <mxGeometry relative="1" as="geometry" />
        </mxCell>
        <mxCell id="xc0sHy3A4MHcJjiOUEkv-41" value="Virtual Service" style="rounded=1;whiteSpace=wrap;html=1;fontSize=12;align=center;verticalAlign=middle;" vertex="1" parent="1">
          <mxGeometry x="700" y="380" width="120" height="60" as="geometry" />
        </mxCell>
        <mxCell id="xc0sHy3A4MHcJjiOUEkv-45" style="edgeStyle=none;rounded=0;orthogonalLoop=1;jettySize=auto;html=1;exitX=0.5;exitY=0;exitDx=0;exitDy=0;entryX=0.5;entryY=1;entryDx=0;entryDy=0;dashed=1;fontSize=12;endArrow=none;endFill=0;" edge="1" parent="1" source="xc0sHy3A4MHcJjiOUEkv-42" target="xc0sHy3A4MHcJjiOUEkv-38">
          <mxGeometry relative="1" as="geometry" />
        </mxCell>
        <mxCell id="xc0sHy3A4MHcJjiOUEkv-42" value="Destination Rule" style="rounded=1;whiteSpace=wrap;html=1;fontSize=12;align=center;verticalAlign=middle;" vertex="1" parent="1">
          <mxGeometry x="560" y="380" width="120" height="60" as="geometry" />
        </mxCell>
        <mxCell id="xc0sHy3A4MHcJjiOUEkv-47" style="edgeStyle=none;rounded=0;orthogonalLoop=1;jettySize=auto;html=1;exitX=0.5;exitY=1;exitDx=0;exitDy=0;entryX=0.5;entryY=0;entryDx=0;entryDy=0;dashed=1;fontSize=12;endArrow=none;endFill=0;" edge="1" parent="1" source="xc0sHy3A4MHcJjiOUEkv-43" target="xc0sHy3A4MHcJjiOUEkv-38">
          <mxGeometry relative="1" as="geometry" />
        </mxCell>
        <mxCell id="xc0sHy3A4MHcJjiOUEkv-43" value="Gateway" style="rounded=1;whiteSpace=wrap;html=1;fontSize=12;align=center;verticalAlign=middle;" vertex="1" parent="1">
          <mxGeometry x="560" y="140" width="120" height="60" as="geometry" />
        </mxCell>
        <mxCell id="xc0sHy3A4MHcJjiOUEkv-49" value="" style="edgeStyle=none;rounded=0;orthogonalLoop=1;jettySize=auto;html=1;exitX=0.5;exitY=0;exitDx=0;exitDy=0;entryX=0.5;entryY=1;entryDx=0;entryDy=0;dashed=1;fontSize=12;endArrow=none;endFill=0;" edge="1" parent="1" source="xc0sHy3A4MHcJjiOUEkv-41" target="xc0sHy3A4MHcJjiOUEkv-38">
          <mxGeometry relative="1" as="geometry">
            <mxPoint x="760" y="380" as="sourcePoint" />
            <mxPoint x="680" y="320" as="targetPoint" />
          </mxGeometry>
        </mxCell>
        <mxCell id="xc0sHy3A4MHcJjiOUEkv-50" value="" style="rounded=1;whiteSpace=wrap;html=1;fontSize=14;align=center;verticalAlign=bottom;" vertex="1" parent="1">
          <mxGeometry x="890" y="100" width="340" height="410" as="geometry" />
        </mxCell>
        <mxCell id="xc0sHy3A4MHcJjiOUEkv-51" value="" style="rounded=1;whiteSpace=wrap;html=1;fontSize=14;align=center;verticalAlign=bottom;" vertex="1" parent="1">
          <mxGeometry x="930" y="120" width="260" height="170" as="geometry" />
        </mxCell>
        <mxCell id="xc0sHy3A4MHcJjiOUEkv-54" style="edgeStyle=none;rounded=0;orthogonalLoop=1;jettySize=auto;html=1;exitX=0.5;exitY=1;exitDx=0;exitDy=0;dashed=1;fontSize=14;endArrow=none;endFill=0;" edge="1" parent="1" source="xc0sHy3A4MHcJjiOUEkv-53">
          <mxGeometry relative="1" as="geometry">
            <mxPoint x="680" y="260" as="targetPoint" />
          </mxGeometry>
        </mxCell>
        <mxCell id="xc0sHy3A4MHcJjiOUEkv-53" value="Service" style="rounded=1;whiteSpace=wrap;html=1;fontSize=12;align=center;verticalAlign=middle;" vertex="1" parent="1">
          <mxGeometry x="700" y="140" width="120" height="60" as="geometry" />
        </mxCell>
        <mxCell id="xc0sHy3A4MHcJjiOUEkv-55" value="" style="html=1;dashed=0;whitespace=wrap;fillColor=#2875E2;strokeColor=#ffffff;points=[[0.005,0.63,0],[0.1,0.2,0],[0.9,0.2,0],[0.5,0,0],[0.995,0.63,0],[0.72,0.99,0],[0.5,1,0],[0.28,0.99,0]];shape=mxgraph.kubernetes.icon;prIcon=pod;fontSize=14;align=center;verticalAlign=bottom;" vertex="1" parent="1">
          <mxGeometry x="940" y="230" width="50" height="48" as="geometry" />
        </mxCell>
        <mxCell id="xc0sHy3A4MHcJjiOUEkv-61" style="edgeStyle=none;rounded=0;orthogonalLoop=1;jettySize=auto;html=1;exitX=1;exitY=0.5;exitDx=0;exitDy=0;entryX=0;entryY=0.25;entryDx=0;entryDy=0;fontSize=14;endArrow=classic;endFill=1;" edge="1" parent="1" source="xc0sHy3A4MHcJjiOUEkv-57" target="xc0sHy3A4MHcJjiOUEkv-59">
          <mxGeometry relative="1" as="geometry" />
        </mxCell>
        <mxCell id="xc0sHy3A4MHcJjiOUEkv-57" value="Envoy Proxy" style="rounded=1;whiteSpace=wrap;html=1;fontSize=14;align=center;verticalAlign=middle;" vertex="1" parent="1">
          <mxGeometry x="950" y="160" width="60" height="60" as="geometry" />
        </mxCell>
        <mxCell id="xc0sHy3A4MHcJjiOUEkv-58" value="API" style="rounded=1;whiteSpace=wrap;html=1;fontSize=14;align=center;verticalAlign=middle;" vertex="1" parent="1">
          <mxGeometry x="1040" y="160" width="120" height="60" as="geometry" />
        </mxCell>
        <mxCell id="xc0sHy3A4MHcJjiOUEkv-59" value="" style="shape=image;html=1;verticalAlign=top;verticalLabelPosition=bottom;labelBackgroundColor=#ffffff;imageAspect=0;aspect=fixed;image=https://cdn4.iconfinder.com/data/icons/logos-and-brands/512/267_Python_logo-128.png;fontSize=14;" vertex="1" parent="1">
          <mxGeometry x="1040.5" y="181" width="39" height="39" as="geometry" />
        </mxCell>
        <mxCell id="xc0sHy3A4MHcJjiOUEkv-60" style="edgeStyle=none;rounded=0;orthogonalLoop=1;jettySize=auto;html=1;exitX=1;exitY=0.5;exitDx=0;exitDy=0;entryX=0;entryY=0.5;entryDx=0;entryDy=0;fontSize=14;endArrow=classic;endFill=1;" edge="1" parent="1" source="xc0sHy3A4MHcJjiOUEkv-38" target="xc0sHy3A4MHcJjiOUEkv-57">
          <mxGeometry relative="1" as="geometry" />
        </mxCell>
      </root>
    </mxGraphModel>
  </diagram>
</mxfile>
